Coordinates
version=1
nRows=17
nColumns=24
inDegrees=yes

Units are S.I. units (second, meters, Newtons, ...)
Angles are in degrees.

endheader
time	pelvis_tilt	pelvis_list	pelvis_rotation	pelvis_tx	pelvis_ty	pelvis_tz	hip_flexion_r	hip_adduction_r	hip_rotation_r	knee_angle_r	ankle_angle_r	subtalar_angle_r	mtp_angle_r	hip_flexion_l	hip_adduction_l	hip_rotation_l	knee_angle_l	ankle_angle_l	subtalar_angle_l	mtp_angle_l	lumbar_extension	lumbar_bending	lumbar_rotation
      1.25916667	      1.30020158	      1.58200744	     -5.35250957	      0.29980864	      1.07498105	      0.25109435	     17.64073235	     -5.46503884	     -6.24148222	    -68.47387466	      4.83433035	     -0.73349667	      8.90651215	      6.71822901	      3.98984598	     -1.51105055	    -17.39311287	     12.47597585	      6.01394440	      0.32815381	    -18.56776196	     -3.12759740	     -1.65724699
      1.26333333	      1.35436720	      1.51335182	     -5.23793357	      0.30465652	      1.07586618	      0.25085267	     17.99626235	     -5.36269483	     -6.41995239	    -67.85188232	      5.12395543	     -0.42079569	      8.94894919	      6.12913094	      3.96019089	     -1.41706495	    -16.88698713	     12.49495885	      6.09079931	      0.34951037	    -18.66770466	     -3.00830792	     -1.88861984
      1.26750000	      1.35714378	      1.42334132	     -5.11172362	      0.30953419	      1.07666673	      0.25062182	     18.38349090	     -5.22536060	     -6.60522596	    -67.16727186	      5.39190875	     -0.16432203	      8.98127340	      5.60510192	      3.89510398	     -1.33731935	    -16.40669908	     12.45163636	      6.18780743	      0.36353851	    -18.70438895	     -2.85535182	     -2.02990982
      1.27166667	      1.39099881	      1.36607074	     -4.99631208	      0.31437780	      1.07740905	      0.25039528	     18.74400886	     -5.12953491	     -6.77385227	    -66.47180023	      5.67371988	      0.12683755	      9.02283697	      5.04363462	      3.87115487	     -1.24456534	    -15.90586435	     12.45113067	      6.25599317	      0.38375997	    -18.77360773	     -2.74854061	     -2.23651818
      1.27583333	      1.40039524	      1.30965261	     -4.87622016	      0.31923662	      1.07807144	      0.25016597	     19.11834006	     -5.03251674	     -6.94565893	    -65.73736769	      5.93551868	      0.38383239	      9.07048710	      4.51062494	      3.84542401	     -1.14281675	    -15.40893370	     12.43687267	      6.30927421	      0.40853304	    -18.81268904	     -2.61221192	     -2.43711545
      1.28000000	      1.38768829	      1.22750276	     -4.75375433	      0.32409048	      1.07867340	      0.24996850	     19.49491622	     -4.89327433	     -7.10686056	    -64.94338082	      6.17878773	      0.60398227	      9.10356127	      4.01584731	      3.78077270	     -1.06844468	    -14.94781972	     12.41061841	      6.39582204	      0.42498744	    -18.82833613	     -2.48180052	     -2.56460465
      1.28416667	      1.40550463	      1.19155872	     -4.64369777	      0.32892582	      1.07922078	      0.24977704	     19.84807351	     -4.81346838	     -7.25308528	    -64.14750441	      6.43279006	      0.84683911	      9.15397552	      3.47745734	      3.77432793	     -0.96186270	    -14.45251273	     12.41011662	      6.43245214	      0.45378736	    -18.87897614	     -2.37917196	     -2.78482132
      1.28833333	      1.38884281	      1.13198368	     -4.52873692	      0.33376764	      1.07970456	      0.24960899	     20.21422962	     -4.69357728	     -7.39248676	    -63.28995963	      6.66227420	      1.04710454	      9.18856045	      2.99065928	      3.73132035	     -0.88469365	    -13.98968361	     12.38258626	      6.49677330	      0.47295506	    -18.88523572	     -2.26857081	     -2.91568060
      1.29250000	      1.37644728	      1.08534326	     -4.42187065	      0.33859726	      1.08010468	      0.24945564	     20.57313674	     -4.58655766	     -7.51701000	    -62.41169787	      6.88517416	      1.22926584	      9.22160864	      2.50178696	      3.70249504	     -0.80344440	    -13.53154652	     12.37849645	      6.55524460	      0.49299323	    -18.89805520	     -2.16877662	     -3.06492108
      1.29666667	      1.37083430	      1.06110032	     -4.32172048	      0.34341936	      1.08045061	      0.24931170	     20.92156868	     -4.50446378	     -7.62774261	    -61.51172000	      7.09535581	      1.40209331	      9.26657383	      2.00057748	      3.70135430	     -0.69254223	    -13.05734457	     12.38808721	      6.56779654	      0.52349794	    -18.91946231	     -2.08177405	     -3.26476226
      1.30083333	      1.34218223	      1.03464788	     -4.22622656	      0.34823766	      1.08069966	      0.24919379	     21.28335546	     -4.40972111	     -7.72033520	    -60.57479957	      7.29492444	      1.53891106	      9.30637562	      1.53731949	      3.69074449	     -0.60697395	    -12.61208182	     12.38751580	      6.59700084	      0.55211707	    -18.90955770	     -2.00483824	     -3.40811123
      1.30500000	      1.29458268	      1.01861826	     -4.13903057	      0.35304187	      1.08085614	      0.24911286	     21.65907971	     -4.31682009	     -7.79006776	    -59.60975051	      7.48841180	      1.64464380	      9.35693386	      1.09650960	      3.68834692	     -0.50812273	    -12.16638561	     12.37502906	      6.60790322	      0.59201104	    -18.88950105	     -1.94087919	     -3.57025942
      1.30916667	      1.23214996	      1.00341509	     -4.06054687	      0.35785752	      1.08093467	      0.24905986	     22.03854855	     -4.21719551	     -7.84282032	    -58.60817424	      7.66411649	      1.72990460	      9.37713821	      0.68787094	      3.67925667	     -0.47171700	    -11.75965120	     12.38783729	      6.67811363	      0.60805987	    -18.83316163	     -1.89021213	     -3.64371968
      1.31333333	      1.21368794	      0.99338352	     -3.98194509	      0.36265271	      1.08102888	      0.24899789	     22.35804155	     -4.12886116	     -7.89115077	    -57.57422285	      7.81750301	      1.80439798	      9.41218520	      0.22239743	      3.68379526	     -0.37695438	    -11.33081365	     12.42358811	      6.68573619	      0.63937094	    -18.83964403	     -1.83376047	     -3.80223748
      1.31750000	      1.17340667	      0.99486109	     -3.91467691	      0.36743899	      1.08102964	      0.24897031	     22.69346347	     -4.04151568	     -7.91026438	    -56.51125956	      7.97040782	      1.84960909	      9.44864109	     -0.21173025	      3.69695330	     -0.29235467	    -10.91615223	     12.43775542	      6.68615341	      0.67300814	    -18.82106998	     -1.79670948	     -3.92838823
      1.32166667	      1.10422251	      1.00126161	     -3.86281918	      0.37222047	      1.08091968	      0.24899277	     23.05188277	     -3.94396371	     -7.89483291	    -55.41790017	      8.12616504	      1.87368996	      9.46757969	     -0.60053053	      3.70780940	     -0.25809528	    -10.53166974	     12.45842981	      6.73660709	      0.69105319	    -18.76571181	     -1.77824027	     -3.99895928
      1.32583333	      1.03900863	      1.01346138	     -3.81339805	      0.37699962	      1.08075568	      0.24901461	     23.39359499	     -3.85255934	     -7.86962330	    -54.29404426	      8.25835103	      1.87738879	      9.48650645	     -0.99342694	      3.72666423	     -0.20146988	    -10.14942960	     12.49802411	      6.76398281	      0.71063197	    -18.71772116	     -1.75742527	     -4.08760221
